<?xml version="1.0" encoding="iso-8859-1"?>
<!-- Generator: Adobe Illustrator 18.1.1, SVG Export Plug-In . SVG Version: 6.00 Build 0)  -->
<svg version="1.1" id="Capa_1" xmlns="http://www.w3.org/2000/svg" xmlns:xlink="http://www.w3.org/1999/xlink" x="0px" y="0px"
	 viewBox="0 0 324.582 324.582" style="enable-background:new 0 0 324.582 324.582;" xml:space="preserve">
<g>
	<g>
		<path style="fill:#010002;" d="M251.1,71.641H73.427C32.939,71.641,0,104.58,0,145.068v99.714c0,4.509,3.655,8.159,8.159,8.159
			s8.159-3.65,8.159-8.159v-99.714c0-15.458,6.201-29.48,16.208-39.776l-0.8,109.521c-0.033,4.504,3.59,8.186,8.099,8.218
			c0.022,0,0.038,0,0.06,0c4.476,0,8.126-3.617,8.159-8.099l0.033-4.406l15.746-15.746l15.191,15.191l-2.975,2.975
			c-1.061,1.061-1.061,2.785,0,3.845c0.533,0.533,1.229,0.794,1.925,0.794c0.696,0,1.392-0.267,1.925-0.794l2.975-2.975l2.975,2.975
			c0.533,0.533,1.229,0.794,1.925,0.794c0.696,0,1.392-0.267,1.925-0.794c1.061-1.061,1.061-2.785,0-3.845l-2.975-2.975
			l16.551-16.551l15.191,15.191l-4.335,4.335c-1.061,1.061-1.061,2.785,0,3.845c0.533,0.533,1.229,0.794,1.925,0.794
			c0.696,0,1.392-0.267,1.925-0.794l4.335-4.335l4.335,4.335c0.533,0.533,1.229,0.794,1.925,0.794s1.392-0.267,1.925-0.794
			c1.061-1.061,1.061-2.785,0-3.845l-4.335-4.335l15.191-15.191l15.191,15.191l-4.335,4.335c-1.061,1.061-1.061,2.785,0,3.845
			c0.533,0.533,1.229,0.794,1.925,0.794c0.696,0,1.392-0.267,1.925-0.794l4.335-4.335l4.335,4.335
			c0.533,0.533,1.229,0.794,1.925,0.794c0.696,0,1.392-0.267,1.925-0.794c1.061-1.061,1.061-2.785,0-3.845l-4.335-4.335
			l15.191-15.191l15.191,15.191l-4.335,4.335c-1.061,1.061-1.061,2.785,0,3.845c0.533,0.533,1.229,0.794,1.925,0.794
			c0.696,0,1.392-0.267,1.925-0.794l4.335-4.335l4.335,4.335c0.533,0.533,1.229,0.794,1.925,0.794c0.696,0,1.392-0.267,1.925-0.794
			c1.061-1.061,1.061-2.785,0-3.845l-4.335-4.335l15.191-15.191l15.73,15.73l-3.796,3.796c-1.061,1.061-1.061,2.785,0,3.845
			c0.533,0.533,1.229,0.794,1.925,0.794c0.696,0,1.392-0.267,1.925-0.794l3.796-3.796l3.796,3.796
			c0.533,0.533,1.229,0.794,1.925,0.794c0.696,0,1.392-0.267,1.925-0.794c1.061-1.061,1.061-2.785,0-3.845l-3.796-3.796
			l15.191-15.191l19.488,19.488v1.425c0,4.509,3.655,8.159,8.159,8.159s8.159-3.65,8.159-8.159V105.178
			c10.079,10.302,16.317,24.378,16.317,39.89v99.714c0,4.509,3.655,8.159,8.159,8.159s8.159-3.65,8.159-8.159v-99.714
			C324.527,104.585,291.588,71.641,251.1,71.641z M60.754,112.847L48.707,124.16l0.169-23.192L60.754,112.847z M95.195,87.958
			h16.818l6.429,6.429l-15.191,15.191L88.194,94.523L95.195,87.958z M132.566,87.958h17.525l6.429,6.429l-15.191,15.191
			l-15.191-15.191L132.566,87.958z M170.64,87.958h17.525l6.429,6.429l-15.191,15.191l-15.191-15.191L170.64,87.958z
			 M208.713,87.958h18.368l6.021,5.994l-15.626,15.626l-15.191-15.191L208.713,87.958z M256.033,116.785l15.224,15.159
			l-15.708,15.708l-15.191-15.191L256.033,116.785z M236.512,128.62l-15.191-15.191l15.637-15.637l15.224,15.159L236.512,128.62z
			 M232.667,132.466l-15.191,15.191l-15.191-15.191l15.191-15.191L232.667,132.466z M213.63,113.429l-15.191,15.191l-15.191-15.191
			l15.191-15.191L213.63,113.429z M194.593,132.466l-15.191,15.191l-15.191-15.191l15.191-15.191L194.593,132.466z M175.557,113.429
			l-15.191,15.191l-15.191-15.191l15.191-15.191L175.557,113.429z M156.52,132.466l-15.191,15.191l-15.191-15.191l15.191-15.191
			L156.52,132.466z M137.483,113.429l-15.191,15.191l-15.191-15.191l15.191-15.191L137.483,113.429z M118.447,132.466
			l-15.191,15.191l-15.191-15.191l15.191-15.191L118.447,132.466z M99.41,113.429L84.218,128.62l-15.654-15.654l15.67-14.713
			L99.41,113.429z M80.373,132.466l-15.191,15.191L48.93,131.405l15.67-14.713L80.373,132.466z M48.598,138.764l12.733,12.733
			L48.408,164.42L48.598,138.764z M65.182,155.348l15.191,15.191L63.822,187.09l-15.191-15.191L65.182,155.348z M69.027,151.502
			l15.191-15.191l15.191,15.191l-15.191,15.191L69.027,151.502z M103.255,155.348l15.191,15.191l-15.191,15.191l-15.191-15.191
			L103.255,155.348z M107.101,151.502l15.191-15.191l15.191,15.191l-15.191,15.191L107.101,151.502z M141.329,155.348l15.191,15.191
			l-15.191,15.191l-15.191-15.191L141.329,155.348z M145.174,151.502l15.191-15.191l15.191,15.191l-15.191,15.191L145.174,151.502z
			 M179.402,155.348l15.191,15.191l-15.191,15.191l-15.191-15.191L179.402,155.348z M183.248,151.502l15.191-15.191l15.191,15.191
			l-15.191,15.191L183.248,151.502z M217.476,155.348l15.191,15.191l-15.191,15.191l-15.191-15.191L217.476,155.348z
			 M221.321,151.502l15.191-15.191l15.191,15.191l-15.191,15.191L221.321,151.502z M255.549,155.348l15.73,15.73l-15.191,15.191
			l-15.73-15.73L255.549,155.348z M259.394,151.502l15.719-15.719l0.462,0.462v30.54l-0.451,0.451L259.394,151.502z
			 M275.576,127.625l-0.473,0.473l-15.224-15.159l15.697-15.697V127.625z M256.028,109.105l-15.224-15.159l5.988-5.988h4.313
			c7.696,0,15.039,1.55,21.745,4.324L256.028,109.105z M239.096,87.958l-2.148,2.148l-2.159-2.148H239.096z M201.022,87.958
			l-2.584,2.584l-2.584-2.584H201.022z M162.949,87.958l-2.584,2.584l-2.584-2.584H162.949z M124.875,87.958l-2.584,2.584
			l-2.584-2.584H124.875z M87.259,87.958l-2.899,2.725l-2.725-2.725H87.259z M73.427,87.958h0.517l6.451,6.451l-15.67,14.713
			L49.088,93.484C56.479,89.981,64.714,87.958,73.427,87.958z M48.13,202.776l0.174-23.513l11.672,11.672L48.13,202.776z
			 M82.859,206.127l-15.191-15.191l16.551-16.551l15.191,15.191L82.859,206.127z M122.292,204.767l-15.191-15.191l15.191-15.191
			l15.191,15.191L122.292,204.767z M160.365,204.767l-15.191-15.191l15.191-15.191l15.191,15.191L160.365,204.767z M198.439,204.767
			l-15.191-15.191l15.191-15.191l15.191,15.191L198.439,204.767z M237.051,205.306l-15.73-15.73l15.191-15.191l15.73,15.73
			L237.051,205.306z M259.933,190.114l15.191-15.191l0.451,0.451v30.383L259.933,190.114z"/>
	</g>
</g>
<g>
</g>
<g>
</g>
<g>
</g>
<g>
</g>
<g>
</g>
<g>
</g>
<g>
</g>
<g>
</g>
<g>
</g>
<g>
</g>
<g>
</g>
<g>
</g>
<g>
</g>
<g>
</g>
<g>
</g>
</svg>
