<?xml version="1.0" encoding="iso-8859-1"?>
<!-- Generator: Adobe Illustrator 18.1.1, SVG Export Plug-In . SVG Version: 6.00 Build 0)  -->
<svg version="1.1" id="Capa_1" xmlns="http://www.w3.org/2000/svg" xmlns:xlink="http://www.w3.org/1999/xlink" x="0px" y="0px"
   viewBox="0 0 446.58 446.58" style="enable-background:new 0 0 446.58 446.58;" xml:space="preserve">
<g>
  <g>
    <path d="M350.657,395.571H95.919c-3.294,0-5.967-2.667-5.967-5.967V192.596l-19.285,19.285
      c-2.238,2.238-6.2,2.238-8.437,0L1.75,151.407c-2.333-2.333-2.333-6.104,0-8.437l89.378-89.378
      c1.086-1.539,2.834-2.584,4.797-2.584h60.737c3.294,0,5.967,2.673,5.967,5.967c0,33.45,27.215,60.665,60.665,60.665
      s60.665-27.215,60.665-60.665c0-3.294,2.667-5.967,5.967-5.967h60.737c2.178,0,4.087,1.17,5.126,2.912l89.044,89.05
      c1.122,1.122,1.748,2.637,1.748,4.219s-0.627,3.103-1.748,4.219l-60.486,60.474c-2.333,2.333-6.104,2.333-8.437,0l-19.285-19.285
      v197.008C356.623,392.904,353.95,395.571,350.657,395.571z"/>
  </g>
</g>
<g>
</g>
<g>
</g>
<g>
</g>
<g>
</g>
<g>
</g>
<g>
</g>
<g>
</g>
<g>
</g>
<g>
</g>
<g>
</g>
<g>
</g>
<g>
</g>
<g>
</g>
<g>
</g>
<g>
</g>
</svg>
