<?xml version="1.0" encoding="iso-8859-1"?>
<!-- Generator: Adobe Illustrator 16.0.0, SVG Export Plug-In . SVG Version: 6.00 Build 0)  -->
<!DOCTYPE svg PUBLIC "-//W3C//DTD SVG 1.1//EN" "http://www.w3.org/Graphics/SVG/1.1/DTD/svg11.dtd">
<svg version="1.1" id="Capa_1" xmlns="http://www.w3.org/2000/svg" xmlns:xlink="http://www.w3.org/1999/xlink" x="0px" y="0px"
	 viewBox="0 0 957.5 957.5" style="enable-background:new 0 0 957.5 957.5;" xml:space="preserve"
	>
<g>
	<g>
		<path d="M173.664,250.959c13.669-13.669,28.132-26.3,43.301-37.907l-51.88-51.88c-7.543-7.543-19.771-7.543-27.314,0
			l-58.536,58.535c-7.543,7.543-7.543,19.772,0,27.315l52.523,52.523C144.438,282.436,158.413,266.21,173.664,250.959z"/>
		<path d="M878.265,219.707l-58.535-58.535c-7.543-7.543-19.772-7.543-27.315,0l-51.88,51.88
			c15.169,11.607,29.632,24.238,43.301,37.907c15.252,15.251,29.227,31.477,41.905,48.587l52.524-52.523
			C885.808,239.479,885.808,227.25,878.265,219.707z"/>
		<path d="M478.749,124.588c10.897,0,21.734,0.4,32.5,1.197V55h28.206c15.188,0,27.5-12.312,27.5-27.5
			c0-15.188-12.312-27.5-27.5-27.5H418.044c-15.188,0-27.5,12.312-27.5,27.5c0,15.188,12.312,27.5,27.5,27.5h28.206v70.785
			C457.016,124.988,467.853,124.588,478.749,124.588z"/>
		<path d="M194.877,839.917c36.874,36.873,79.81,65.822,127.612,86.041c49.484,20.931,102.059,31.542,156.26,31.542
			c54.203,0,106.776-10.611,156.261-31.542c47.804-20.219,90.737-49.168,127.611-86.041c36.874-36.874,65.822-79.81,86.042-127.611
			c20.931-49.484,31.542-102.059,31.542-156.262s-10.611-106.775-31.542-156.26c-11.848-28.012-26.716-54.336-44.396-78.765
			c-12.493-17.26-26.378-33.581-41.646-48.848c-13.68-13.68-28.198-26.264-43.486-37.721
			c-25.919-19.425-54.058-35.603-84.126-48.321c-39.53-16.719-81.032-26.847-123.761-30.249c-10.76-0.856-21.596-1.293-32.5-1.293
			c-10.903,0-21.739,0.437-32.5,1.293c-42.728,3.401-84.23,13.529-123.76,30.249c-30.067,12.718-58.207,28.896-84.126,48.321
			c-15.288,11.458-29.806,24.041-43.487,37.721c-15.267,15.267-29.151,31.588-41.645,48.848
			c-17.682,24.428-32.549,50.752-44.396,78.764c-20.93,49.483-31.542,102.057-31.542,156.26s10.612,106.776,31.542,156.261
			C129.054,760.107,158.003,803.043,194.877,839.917z M186.876,354.664c23.177-33.528,51.983-62.864,85.05-86.65
			c58.216-41.875,129.638-66.543,206.823-66.543v344.574c0,5.523-4.477,10-10,10H124.175
			C124.175,481.248,147.337,411.862,186.876,354.664z"/>
	</g>
</g>
<g>
</g>
<g>
</g>
<g>
</g>
<g>
</g>
<g>
</g>
<g>
</g>
<g>
</g>
<g>
</g>
<g>
</g>
<g>
</g>
<g>
</g>
<g>
</g>
<g>
</g>
<g>
</g>
<g>
</g>
</svg>
